Coordinates
version=1
nRows=28
nColumns=34
inDegrees=no

Units are S.I. units (second, meters, Newtons, ...)
If the header above contains a line with 'inDegrees', this indicates whether rotational values are in degrees (yes) or radians (no).

endheader
time	pelvis_tilt	pelvis_list	pelvis_rotation	pelvis_tx	pelvis_ty	pelvis_tz	hip_flexion_r	hip_adduction_r	hip_rotation_r	knee_angle_r	ankle_angle_r	subtalar_angle_r	mtp_angle_r	hip_flexion_l	hip_adduction_l	hip_rotation_l	knee_angle_l	ankle_angle_l	subtalar_angle_l	mtp_angle_l	lumbar_extension	lumbar_bending	lumbar_rotation	arm_flex_r	arm_add_r	arm_rot_r	elbow_flex_r	pro_sup_r	arm_flex_l	arm_add_l	arm_rot_l	elbow_flex_l	pro_sup_l
3.29	-0.789814	-0.121091	0.00254464	-0.335909	0.831692	-0.63255	1.37929	-0.146618	-0.197007	0.739299	0.22678	0.0200815	-0.0956076	1.38595	-0.475312	-0.144428	0.590357	0.140028	0.238078	-0.0956022	0.0399954	0.0601224	-0.0436831	1.31774	-0.531974	0.313976	2.26181	1.66767	1.50021	-0.464542	0.437359	2.12445	1.80273
3.3	-0.800628	-0.125679	0.00222496	-0.339891	0.825873	-0.629782	1.40868	-0.148268	-0.201913	0.76559	0.234936	0.017992	-0.0956076	1.42025	-0.483394	-0.136051	0.612675	0.147286	0.232671	-0.0956023	0.0285859	0.0641091	-0.0425348	1.35648	-0.529155	0.323461	2.25752	1.66869	1.53592	-0.462854	0.444166	2.11708	1.8039
3.31	-0.81043	-0.130989	0.00185111	-0.343609	0.819998	-0.627029	1.43665	-0.149927	-0.207797	0.791898	0.243198	0.0161637	-0.0956075	1.45409	-0.491728	-0.126744	0.634905	0.153273	0.227235	-0.0956024	0.0168469	0.0688762	-0.0407792	1.39303	-0.525977	0.33238	2.25324	1.66969	1.56953	-0.460423	0.450539	2.10981	1.80427
3.32	-0.819469	-0.136883	0.00147116	-0.347047	0.81406	-0.624306	1.46339	-0.151726	-0.214536	0.818119	0.251621	0.0147166	-0.0956075	1.4874	-0.500089	-0.116703	0.656731	0.158103	0.222336	-0.0956025	0.00525103	0.0743288	-0.0386347	1.427	-0.522257	0.34083	2.24909	1.67039	1.60051	-0.457574	0.456283	2.10304	1.80392
3.33	-0.827892	-0.143099	0.00120169	-0.350202	0.808061	-0.621632	1.48902	-0.153875	-0.221842	0.844218	0.260256	0.0137365	-0.0956075	1.51996	-0.508157	-0.106195	0.677984	0.16223	0.218487	-0.0956026	-0.00594053	0.080198	-0.0363279	1.45816	-0.517921	0.348827	2.2452	1.67062	1.62863	-0.454562	0.461323	2.09711	1.80301
3.34	-0.835761	-0.149298	0.00119403	-0.353081	0.802012	-0.61903	1.51369	-0.156596	-0.229306	0.870213	0.269146	0.013259	-0.0956074	1.55153	-0.515576	-0.0954885	0.698666	0.166333	0.216015	-0.0956027	-0.0166476	0.086109	-0.0340646	1.48642	-0.513007	0.356346	2.24171	1.67032	1.65392	-0.451575	0.465691	2.09224	1.8018
3.35	-0.843095	-0.155158	0.00157968	-0.355703	0.795923	-0.616515	1.53753	-0.160043	-0.236473	0.896141	0.278309	0.0132363	-0.0956074	1.58191	-0.522048	-0.0847737	0.718925	0.171097	0.214966	-0.0956028	-0.0269051	0.091687	-0.0319948	1.51188	-0.507638	0.363359	2.23875	1.66951	1.67661	-0.448749	0.469496	2.08859	1.8005
3.36	-0.849896	-0.160438	0.0024288	-0.358091	0.789808	-0.614096	1.56065	-0.164236	-0.242918	0.922036	0.287725	0.0135174	-0.0956074	1.61103	-0.527401	-0.0741211	0.738987	0.176994	0.215083	-0.0956029	-0.0368114	0.0966399	-0.0301927	1.53476	-0.502001	0.369864	2.23642	1.66827	1.69707	-0.446188	0.472908	2.08619	1.79932
3.37	-0.856151	-0.165002	0.00373949	-0.360271	0.783677	-0.611773	1.58316	-0.169053	-0.248287	0.947921	0.297341	0.0138596	-0.0956073	1.6389	-0.531603	-0.0635047	0.759077	0.184141	0.215872	-0.095603	-0.046506	0.10079	-0.028661	1.55539	-0.496299	0.375882	2.23478	1.66674	1.71574	-0.44398	0.476129	2.08504	1.79838
3.38	-0.861816	-0.168807	0.00544911	-0.362263	0.77754	-0.609539	1.60511	-0.174264	-0.252315	0.973808	0.307076	0.0139658	-0.0956073	1.66557	-0.534754	-0.0528565	0.779348	0.192267	0.216752	-0.0956031	-0.0561601	0.10407	-0.0273481	1.57413	-0.490724	0.381447	2.23383	1.66508	1.73307	-0.4422	0.479359	2.08506	1.79777
3.39	-0.866823	-0.17188	0.0074539	-0.364081	0.771406	-0.607383	1.6265	-0.179575	-0.254842	0.999704	0.316835	0.0135336	-0.0956073	1.6911	-0.537048	-0.0421195	0.799856	0.200791	0.217235	-0.0956032	-0.0659623	0.106493	-0.026164	1.59133	-0.485431	0.386594	2.23352	1.66354	1.74945	-0.440906	0.482773	2.08614	1.79744
3.4	-0.871084	-0.174283	0.0096321	-0.365734	0.765284	-0.605292	1.6473	-0.18468	-0.2558	1.02562	0.326521	0.0123047	-0.0956072	1.71548	-0.538733	-0.0312851	0.820561	0.208982	0.217091	-0.0956033	-0.0761005	0.108131	-0.0249942	1.60733	-0.480536	0.391369	2.23379	1.66228	1.7652	-0.440126	0.486499	2.08816	1.79722
3.41	-0.874506	-0.176094	0.0118663	-0.367226	0.759182	-0.603256	1.66745	-0.189312	-0.255216	1.05156	0.336049	0.0101066	-0.0956072	1.73871	-0.540074	-0.0204076	0.841369	0.216151	0.216403	-0.0956034	-0.0867454	0.109076	-0.0237168	1.62244	-0.476117	0.39583	2.23455	1.66141	1.7805	-0.439847	0.490601	2.09098	1.79682
3.42	-0.877002	-0.177383	0.0140571	-0.368556	0.753104	-0.601269	1.68686	-0.19327	-0.253187	1.07752	0.345353	0.00687684	-0.0956072	1.76075	-0.541315	-0.00958956	0.862179	0.221827	0.215515	-0.0956035	-0.0980352	0.109426	-0.0222181	1.63691	-0.472215	0.400057	2.2357	1.66095	1.79543	-0.440002	0.495062	2.09448	1.79592
3.43	-0.878505	-0.178203	0.0161247	-0.369724	0.747055	-0.59933	1.70546	-0.196435	-0.249877	1.10349	0.354398	0.0026724	-0.0956071	1.78155	-0.542664	0.00105088	0.882927	0.225866	0.214908	-0.0956037	-0.110064	0.109266	-0.0204017	1.65095	-0.468846	0.404151	2.23716	1.66089	1.80995	-0.440458	0.499794	2.09853	1.79424
3.44	-0.878973	-0.178587	0.0180064	-0.370726	0.741037	-0.597441	1.72317	-0.19877	-0.245492	1.12945	0.363187	-0.00233007	-0.0956071	1.80111	-0.544291	0.0114145	0.903625	0.228476	0.215039	-0.0956038	-0.122877	0.108658	-0.0181939	1.66467	-0.466013	0.408223	2.23884	1.66123	1.82396	-0.441036	0.504657	2.10301	1.79166
3.45	-0.878392	-0.178547	0.019654	-0.371563	0.735051	-0.595607	1.73994	-0.200314	-0.240273	1.15536	0.371766	-0.00784717	-0.0956071	1.81946	-0.546324	0.0214434	0.92436	0.230137	0.216218	-0.0956039	-0.136478	0.107633	-0.0155497	1.67814	-0.463713	0.412379	2.24066	1.66199	1.8373	-0.441536	0.509516	2.1078	1.78818
3.46	-0.876767	-0.178072	0.0210347	-0.372235	0.729095	-0.593833	1.75571	-0.201171	-0.234467	1.18121	0.380221	-0.0135218	-0.095607	1.83663	-0.548851	0.031123	0.945271	0.231463	0.218547	-0.095604	-0.150846	0.106188	-0.012462	1.69134	-0.461934	0.416704	2.24256	1.66322	1.84984	-0.441776	0.514279	2.11279	1.78402
3.47	-0.874111	-0.177139	0.022136	-0.372742	0.723171	-0.592126	1.77042	-0.201486	-0.228309	1.20693	0.388659	-0.0189754	-0.095607	1.85267	-0.551914	0.0404681	0.966498	0.23304	0.22194	-0.0956041	-0.165952	0.104295	-0.00896883	1.70421	-0.460646	0.421256	2.24448	1.66494	1.86149	-0.441632	0.518932	2.11792	1.77948
3.48	-0.870439	-0.175723	0.0229673	-0.373089	0.717281	-0.590495	1.78403	-0.20143	-0.222005	1.23251	0.397189	-0.0238654	-0.095607	1.86758	-0.555514	0.049502	0.988132	0.235312	0.226201	-0.0956042	-0.181775	0.101924	-0.00515243	1.71669	-0.459786	0.426076	2.2464	1.66707	1.87222	-0.441044	0.523541	2.12313	1.77494
3.49	-0.865774	-0.17381	0.0235609	-0.373279	0.711431	-0.588946	1.7965	-0.20117	-0.215717	1.25789	0.405899	-0.0279303	-0.0956069	1.88135	-0.559603	0.0582438	1.01019	0.238507	0.231111	-0.0956043	-0.198294	0.0990657	-0.00113056	1.72872	-0.459255	0.431187	2.24829	1.66955	1.88207	-0.440022	0.528213	2.12839	1.77097
3.5	-0.860165	-0.171409	0.0239702	-0.373324	0.705625	-0.58749	1.80783	-0.200863	-0.20955	1.28303	0.414838	-0.0310119	-0.0956069	1.894	-0.564085	0.0667065	1.0326	0.242647	0.236467	-0.0956044	-0.215472	0.0957559	0.0029506	1.74028	-0.458925	0.436604	2.25012	1.6724	1.89111	-0.438632	0.533053	2.13368	1.76832
3.51	-0.853715	-0.168552	0.0242642	-0.373238	0.699867	-0.586139	1.81809	-0.200639	-0.203542	1.30792	0.424009	-0.0330628	-0.0956069	1.90555	-0.56881	0.0749086	1.05523	0.247588	0.242072	-0.0956046	-0.233218	0.0920789	0.00692371	1.75142	-0.458642	0.442348	2.25187	1.67571	1.89943	-0.436988	0.538127	2.13893	1.76792
3.52	-0.8466	-0.165295	0.0245123	-0.373043	0.694154	-0.584901	1.82744	-0.20059	-0.19767	1.33251	0.433366	-0.0341443	-0.0956068	1.91613	-0.573595	0.0828869	1.07793	0.253088	0.247717	-0.0956047	-0.251358	0.0881539	0.0106159	1.76218	-0.458251	0.448438	2.25348	1.67956	1.90716	-0.435233	0.543444	2.1441	1.77052
3.53	-0.839084	-0.161707	0.024763	-0.372765	0.688474	-0.583783	1.83619	-0.200752	-0.191868	1.35678	0.44282	-0.0344171	-0.0956068	1.92601	-0.578244	0.0907074	1.10056	0.258862	0.253178	-0.0956048	-0.269605	0.0841115	0.013875	1.77265	-0.457637	0.454884	2.25494	1.68402	1.9144	-0.433511	0.548965	2.14916	1.7765
3.54	-0.831537	-0.15787	0.0250282	-0.372435	0.682806	-0.582784	1.84474	-0.2011	-0.186041	1.38069	0.452237	-0.0341199	-0.0956068	1.93556	-0.582576	0.098468	1.12301	0.264616	0.258213	-0.0956049	-0.287542	0.0800746	0.0165934	1.78288	-0.45676	0.461683	2.25623	1.68894	1.92123	-0.431937	0.554615	2.15408	1.78564
3.55	-0.824421	-0.153871	0.0252828	-0.37209	0.677119	-0.581899	1.85364	-0.201563	-0.180088	1.40421	0.461455	-0.0335331	-0.0956067	1.94532	-0.586432	0.106288	1.14519	0.270069	0.262562	-0.095605	-0.304618	0.0761481	0.0187168	1.79288	-0.45566	0.468813	2.25743	1.69395	1.92768	-0.430582	0.560302	2.15889	1.79703
3.56	-0.818249	-0.149791	0.0254795	-0.371763	0.671376	-0.581122	1.86345	-0.202051	-0.173913	1.42727	0.4703	-0.0329292	-0.0956067	1.95585	-0.589665	0.11429	1.16707	0.274976	0.26596	-0.0956051	-0.320208	0.0724126	0.0202357	1.8026	-0.454437	0.476229	2.25862	1.6984	1.93376	-0.429474	0.565943	2.16368	1.80909
